<?xml version="1.0" encoding="UTF-8"?>
<svg xmlns="http://www.w3.org/2000/svg" xmlns:xlink="http://www.w3.org/1999/xlink" width="340.2pt" height="340.2pt" viewBox="0 0 340.2 340.2" version="1.1">
<defs>
<clipPath id="clip1">
  <path d="M 0 0 L 340.199219 0 L 340.199219 340.199219 L 0 340.199219 Z M 0 0 "/>
</clipPath>
</defs>
<g id="surface1">
<g clip-path="url(#clip1)" clip-rule="nonzero">
<path style=" stroke:none;fill-rule:evenodd;fill:rgb(10.594177%,9.812927%,9.423828%);fill-opacity:1;" d="M 170.167969 -0.0351563 C 263.84375 -0.0351563 340.246094 76.367188 340.246094 170.042969 C 340.246094 263.71875 263.84375 340.121094 170.167969 340.121094 C 76.492188 340.121094 0.0898438 263.71875 0.0898438 170.042969 C 0.0898438 76.367188 76.492188 -0.0351563 170.167969 -0.0351563 Z M 170.167969 -0.0351563 "/>
</g>
<path style=" stroke:none;fill-rule:evenodd;fill:rgb(100%,92.576599%,0%);fill-opacity:1;" d="M 170.167969 9.25 C 258.730469 9.25 330.960938 81.480469 330.960938 170.042969 C 330.960938 258.605469 258.730469 330.839844 170.167969 330.839844 C 81.605469 330.839844 9.371094 258.605469 9.371094 170.042969 C 9.371094 81.480469 81.605469 9.25 170.167969 9.25 Z M 170.167969 9.25 "/>
<path style=" stroke:none;fill-rule:evenodd;fill:rgb(10.594177%,9.812927%,9.423828%);fill-opacity:1;" d="M 258.339844 137.535156 L 250.730469 140.503906 C 221.367188 69.464844 129.777344 67.695313 95.796875 131.722656 L 115.71875 127.074219 L 117.800781 134.949219 L 84.363281 143.609375 L 76.175781 109.757813 L 84.261719 107.910156 L 89.15625 127.074219 C 126.140625 58.71875 226.019531 58.90625 258.339844 137.535156 Z M 258.339844 137.535156 "/>
<path style=" stroke:none;fill-rule:evenodd;fill:rgb(10.594177%,9.812927%,9.423828%);fill-opacity:1;" d="M 84.230469 203.625 L 91.839844 200.65625 C 121.207031 271.695313 212.792969 273.460938 246.773438 209.4375 L 226.851563 214.082031 L 224.769531 206.210938 L 258.207031 197.546875 L 266.394531 231.398438 L 258.308594 233.246094 L 253.414063 214.082031 C 216.429688 282.441406 116.550781 282.25 84.230469 203.625 Z M 84.230469 203.625 "/>
<path style=" stroke:none;fill-rule:evenodd;fill:rgb(10.594177%,9.812927%,9.423828%);fill-opacity:1;" d="M 126.769531 176.953125 L 134.507813 176.953125 C 134.476563 177.269531 134.457031 177.496094 134.457031 177.636719 C 134.457031 177.917969 134.484375 178.21875 134.535156 178.535156 C 134.585938 178.851563 134.679688 179.234375 134.8125 179.691406 C 135.285156 180.992188 136.128906 182.027344 137.34375 182.800781 C 138.554688 183.574219 140.140625 183.960938 142.097656 183.960938 C 144.660156 183.960938 146.582031 183.449219 147.863281 182.433594 C 148.941406 181.554688 149.480469 180.464844 149.480469 179.164063 C 149.480469 177.867188 148.90625 176.867188 147.761719 176.164063 C 147.1875 175.8125 146.546875 175.53125 145.839844 175.320313 L 144.472656 174.898438 L 143.410156 174.582031 L 142.855469 174.425781 L 140.882813 173.898438 L 138 173.105469 C 134.457031 172.089844 131.914063 170.808594 130.363281 169.261719 C 128.808594 167.714844 128.035156 165.679688 128.035156 163.148438 C 128.035156 162.027344 128.1875 160.78125 128.488281 159.410156 C 129.0625 156.8125 130.511719 154.757813 132.839844 153.246094 C 135.300781 151.628906 138.488281 150.824219 142.398438 150.824219 C 146.582031 150.824219 149.867188 151.746094 152.261719 153.589844 C 154.65625 155.433594 156.105469 158.074219 156.613281 161.515625 C 156.679688 161.867188 156.714844 162.210938 156.714844 162.542969 C 156.714844 162.878906 156.714844 163.21875 156.714844 163.570313 L 149.226563 163.570313 L 149.226563 162.519531 C 149.09375 160.902344 148.453125 159.628906 147.304688 158.699219 C 146.160156 157.769531 144.542969 157.300781 142.449219 157.300781 C 142.148438 157.300781 141.859375 157.300781 141.589844 157.300781 C 141.1875 157.371094 140.882813 157.40625 140.679688 157.40625 C 139.164063 157.546875 137.949219 157.988281 137.039063 158.726563 C 136.601563 159.074219 136.269531 159.496094 136.050781 159.988281 C 135.832031 160.480469 135.722656 161.007813 135.722656 161.570313 C 135.722656 162.625 136.109375 163.449219 136.886719 164.046875 C 137.023438 164.152344 137.230469 164.273438 137.519531 164.414063 C 137.804688 164.554688 138.402344 164.785156 139.3125 165.097656 L 140.074219 165.308594 L 140.476563 165.414063 L 142.601563 165.996094 L 145.382813 166.785156 L 146.242188 166.996094 L 148.570313 167.679688 C 151.46875 168.488281 153.652344 169.746094 155.121094 171.449219 C 156.585938 173.152344 157.320313 175.25 157.320313 177.742188 C 157.320313 178.832031 157.167969 179.992188 156.867188 181.21875 C 156.191406 183.996094 154.597656 186.242188 152.085938 187.964844 C 149.574219 189.683594 146.378906 190.546875 142.5 190.546875 C 141.828125 190.546875 141.152344 190.546875 140.476563 190.546875 C 139.871094 190.441406 139.433594 190.371094 139.164063 190.335938 C 135.21875 189.84375 132.132813 188.316406 129.90625 185.75 C 127.816406 183.328125 126.769531 180.394531 126.769531 176.953125 Z M 126.769531 176.953125 "/>
<path style=" stroke:none;fill-rule:evenodd;fill:rgb(10.594177%,9.812927%,9.423828%);fill-opacity:1;" d="M 87.324219 151.71875 L 87.324219 189.648438 L 71.972656 189.648438 C 66.804688 189.648438 62.609375 188.035156 59.386719 184.804688 C 56.164063 181.570313 54.550781 177.199219 54.550781 171.683594 C 54.550781 169.894531 54.726563 168.101563 55.082031 166.3125 C 55.96875 161.535156 57.890625 157.910156 60.847656 155.433594 C 63.800781 152.957031 67.617188 151.71875 72.292969 151.71875 Z M 79.304688 158.566406 L 72.398438 158.566406 C 69.566406 158.566406 67.308594 159.601563 65.625 161.675781 C 63.945313 163.746094 63.101563 166.769531 63.101563 170.738281 C 63.101563 174.707031 63.917969 177.71875 65.546875 179.773438 C 67.175781 181.828125 69.386719 182.855469 72.1875 182.855469 L 79.304688 182.855469 Z M 79.304688 158.566406 "/>
<path style=" stroke:none;fill-rule:evenodd;fill:rgb(10.594177%,9.812927%,9.423828%);fill-opacity:1;" d="M 58.082031 151.71875 L 43.25 189.648438 L 34.753906 189.648438 L 20.667969 151.71875 L 29.734375 151.71875 L 32.730469 159.988281 L 45.222656 159.988281 L 49.246094 151.71875 Z M 43.402344 166.363281 L 34.601563 166.363281 L 39.683594 179.800781 Z M 43.402344 166.363281 "/>
<path style=" stroke:none;fill-rule:evenodd;fill:rgb(10.594177%,9.812927%,9.423828%);fill-opacity:1;" d="M 157.078125 158.566406 L 157.078125 151.71875 L 188.160156 151.71875 L 188.160156 158.566406 L 176.570313 158.566406 L 176.570313 189.648438 L 168.613281 189.648438 L 168.613281 158.566406 Z M 157.078125 158.566406 "/>
<path style=" stroke:none;fill-rule:evenodd;fill:rgb(10.594177%,9.812927%,9.423828%);fill-opacity:1;" d="M 190.269531 189.648438 L 190.269531 151.71875 L 218.296875 151.71875 L 218.296875 158.515625 L 198.222656 158.515625 L 198.222656 166.363281 L 215.976563 166.363281 L 215.976563 173.210938 L 198.222656 173.210938 L 198.222656 182.800781 L 218.613281 182.800781 L 218.613281 189.648438 Z M 190.269531 189.648438 "/>
<path style=" stroke:none;fill-rule:evenodd;fill:rgb(10.594177%,9.812927%,9.423828%);fill-opacity:1;" d="M 220.789063 189.648438 L 220.789063 151.71875 L 238.058594 151.71875 C 242.222656 151.71875 245.382813 152.375 247.535156 153.695313 C 249.691406 155.011719 251.039063 157.054688 251.582031 159.832031 C 251.65625 160.148438 251.710938 160.605469 251.746094 161.199219 C 251.78125 161.796875 251.800781 162.113281 251.800781 162.148438 C 251.800781 164.1875 251.277344 165.96875 250.226563 167.496094 C 249.175781 169.023438 247.761719 170.121094 245.988281 170.789063 L 244.902344 171.050781 C 246.570313 171.261719 247.945313 172.035156 249.03125 173.371094 C 250.117188 174.707031 250.660156 176.550781 250.660156 178.902344 L 250.660156 181.0625 L 250.769531 182.117188 L 250.878906 183.644531 C 250.878906 185.257813 250.996094 186.453125 251.230469 187.226563 C 251.464844 188 251.925781 188.808594 252.613281 189.648438 L 244.160156 189.648438 C 243.679688 189.054688 243.355469 188.492188 243.175781 187.964844 C 242.992188 187.4375 242.839844 186.558594 242.730469 185.328125 L 242.566406 182.539063 L 242.566406 181.21875 C 242.566406 178.902344 242.050781 177.226563 241.019531 176.1875 C 239.988281 175.152344 238.402344 174.636719 236.265625 174.636719 L 228.988281 174.636719 L 228.988281 189.648438 Z M 228.988281 167.945313 L 237.894531 167.945313 C 241.226563 167.945313 243.148438 166.644531 243.652344 164.046875 C 243.726563 163.554688 243.761719 163.183594 243.761719 162.9375 C 243.761719 160.023438 241.84375 158.566406 238.003906 158.566406 L 228.988281 158.566406 Z M 228.988281 167.945313 "/>
<path style=" stroke:none;fill-rule:evenodd;fill:rgb(10.594177%,9.812927%,9.423828%);fill-opacity:1;" d="M 256.011719 189.648438 L 256.011719 151.71875 L 284.042969 151.71875 L 284.042969 158.515625 L 263.96875 158.515625 L 263.96875 166.363281 L 281.722656 166.363281 L 281.722656 173.210938 L 263.96875 173.210938 L 263.96875 182.800781 L 284.355469 182.800781 L 284.355469 189.648438 Z M 256.011719 189.648438 "/>
<path style=" stroke:none;fill-rule:evenodd;fill:rgb(10.594177%,9.812927%,9.423828%);fill-opacity:1;" d="M 285.085938 170.683594 C 285.085938 167.277344 285.570313 164.34375 286.535156 161.886719 C 287.5 159.425781 289 157.285156 291.039063 155.457031 C 294.410156 152.367188 298.644531 150.824219 303.734375 150.824219 C 308.828125 150.824219 313.058594 152.367188 316.433594 155.457031 C 318.46875 157.285156 319.972656 159.410156 320.9375 161.832031 C 321.902344 164.257813 322.386719 167.207031 322.386719 170.683594 C 322.386719 174.125 321.902344 177.066406 320.9375 179.507813 C 319.972656 181.949219 318.46875 184.082031 316.433594 185.910156 C 313.058594 189 308.828125 190.546875 303.734375 190.546875 C 298.644531 190.546875 294.410156 189 291.039063 185.910156 C 289 184.082031 287.5 181.957031 286.535156 179.535156 C 285.570313 177.109375 285.085938 174.160156 285.085938 170.683594 Z M 293.460938 170.683594 C 293.460938 171.773438 293.53125 172.757813 293.671875 173.632813 C 294.128906 177.144531 295.226563 179.789063 296.964844 181.5625 C 298.703125 183.335938 300.960938 184.222656 303.734375 184.222656 C 306.511719 184.222656 308.757813 183.34375 310.480469 181.589844 C 312.199219 179.832031 313.304688 177.179688 313.796875 173.632813 C 313.9375 172.792969 314.007813 171.808594 314.007813 170.683594 C 314.007813 169.59375 313.9375 168.613281 313.796875 167.734375 C 313.304688 164.222656 312.191406 161.578125 310.453125 159.804688 C 308.714844 158.03125 306.476563 157.144531 303.734375 157.144531 C 300.960938 157.144531 298.703125 158.03125 296.964844 159.804688 C 295.226563 161.578125 294.128906 164.222656 293.671875 167.734375 C 293.601563 168.15625 293.550781 168.628906 293.515625 169.15625 C 293.480469 169.683594 293.460938 170.191406 293.460938 170.683594 Z M 293.460938 170.683594 "/>
<path style=" stroke:none;fill-rule:evenodd;fill:rgb(10.594177%,9.812927%,9.423828%);fill-opacity:1;" d="M 89.414063 170.683594 C 89.414063 167.277344 89.898438 164.34375 90.863281 161.886719 C 91.828125 159.425781 93.332031 157.285156 95.367188 155.457031 C 98.738281 152.367188 102.972656 150.824219 108.066406 150.824219 C 113.15625 150.824219 117.390625 152.367188 120.761719 155.457031 C 122.800781 157.285156 124.300781 159.410156 125.265625 161.832031 C 126.230469 164.257813 126.714844 167.207031 126.714844 170.683594 C 126.714844 174.125 126.230469 177.066406 125.265625 179.507813 C 124.300781 181.949219 122.800781 184.082031 120.761719 185.910156 C 117.390625 189 113.15625 190.546875 108.066406 190.546875 C 102.972656 190.546875 98.738281 189 95.367188 185.910156 C 93.332031 184.082031 91.828125 181.957031 90.863281 179.535156 C 89.898438 177.109375 89.414063 174.160156 89.414063 170.683594 Z M 97.792969 170.683594 C 97.792969 171.773438 97.863281 172.757813 98.003906 173.632813 C 98.460938 177.144531 99.558594 179.789063 101.296875 181.5625 C 103.035156 183.335938 105.289063 184.222656 108.066406 184.222656 C 110.839844 184.222656 113.085938 183.34375 114.808594 181.589844 C 116.53125 179.832031 117.636719 177.179688 118.128906 173.632813 C 118.269531 172.792969 118.339844 171.808594 118.339844 170.683594 C 118.339844 169.59375 118.269531 168.613281 118.128906 167.734375 C 117.636719 164.222656 116.519531 161.578125 114.78125 159.804688 C 113.042969 158.03125 110.804688 157.144531 108.066406 157.144531 C 105.289063 157.144531 103.035156 158.03125 101.296875 159.804688 C 99.558594 161.578125 98.460938 164.222656 98.003906 167.734375 C 97.933594 168.15625 97.878906 168.628906 97.84375 169.15625 C 97.808594 169.683594 97.792969 170.191406 97.792969 170.683594 Z M 97.792969 170.683594 "/>
</g>
</svg>
